<?xml version="1.0" encoding="utf-8"?>
<!-- Generator: Adobe Illustrator 25.4.0, SVG Export Plug-In . SVG Version: 6.00 Build 0)  -->
<svg version="1.1" id="Layer_1" xmlns="http://www.w3.org/2000/svg" xmlns:xlink="http://www.w3.org/1999/xlink" x="0px" y="0px"
	 viewBox="0 0 914.9 858.5" style="enable-background:new 0 0 914.9 858.5;" xml:space="preserve">
<style type="text/css">
	.st0{fill:#112860;}
	.st1{clip-path:url(#SVGID_00000094576393600402167040000015159803476341365890_);}
	.st2{clip-path:url(#SVGID_00000155859404041645286700000014430427468845352321_);}
	.st3{clip-path:url(#SVGID_00000138556885446373005660000001721459555702359191_);}
</style>
<path class="st0" d="M398.9,786.5h-27.6c-8.2,0-14.9,6.6-14.9,14.8c0,0,0,0,0,0.1V829c0,8.2,6.6,14.9,14.8,14.9c0,0,0,0,0,0h2.2
	c1.1,0,2-0.9,2-2l0,0c0-1.1-0.9-2-2-2h-2.3c-5.9,0-10.7-4.8-10.7-10.7c0,0,0,0,0,0v-27.8c0-5.9,4.8-10.7,10.7-10.7c0,0,0,0,0,0H399
	c5.9,0,10.7,4.8,10.7,10.7c0,0,0,0,0,0v27.8c0,5.9-4.8,10.7-10.7,10.7c0,0,0,0,0,0h-8.4v-21.9h7c1.2,0.1,2.2-0.8,2.3-2
	c0.1-1.2-0.8-2.2-2-2.3c-0.1,0-0.2,0-0.3,0h-7v-2.7c0-3.9,3.1-7,7-7c0,0,0.1,0,0.1,0l0,0c1.2,0,2.1-0.9,2.1-2.1
	c0-1.2-0.9-2.1-2.1-2.1l0,0c-6.2-0.1-11.2,4.9-11.4,11.1v2.8h-4.6c-1.2-0.1-2.2,0.8-2.3,2c-0.1,1.2,0.8,2.2,2,2.3c0.1,0,0.2,0,0.3,0
	h4.6v21.9c-1.1,0-1.9,0.9-1.9,2l0,0c0,1.1,0.9,2,2,2h12.5c8.2,0,14.9-6.7,14.9-14.9v-27.5C413.8,793.2,407.1,786.5,398.9,786.5z"/>
<path class="st0" d="M313.5,801.4c-7.7,0-14,6.3-14,14s6.3,14,14,14s14-6.3,14-14l0,0C327.5,807.6,321.2,801.4,313.5,801.4z
	 M313.5,825c-5.4,0-9.7-4.3-9.7-9.7s4.3-9.7,9.7-9.7c5.4,0,9.7,4.3,9.7,9.7c0,0,0,0,0,0C323.2,820.7,318.9,825.1,313.5,825
	C313.5,825.1,313.5,825.1,313.5,825L313.5,825z"/>
<path class="st0" d="M331.4,800.2c0-1.5-1.2-2.8-2.7-2.8c-1.5,0-2.8,1.2-2.8,2.7s1.2,2.8,2.7,2.8c0,0,0,0,0,0
	C330.1,803,331.4,801.7,331.4,800.2z"/>
<path class="st0" d="M327.3,786.5h-27.6c-8.2,0-14.9,6.7-14.9,14.9V829c0,8.2,6.7,14.9,14.9,14.9h2.2c1.1,0,2-0.9,2-2l0,0
	c0-1.1-0.9-2-2-2h-2.3c-5.9,0-10.7-4.8-10.7-10.7c0,0,0,0,0-0.1v-27.8c0-5.9,4.8-10.7,10.7-10.7c0,0,0,0,0,0h27.8
	c5.9,0,10.7,4.8,10.7,10.7c0,0,0,0,0,0v27.8c0,5.9-4.8,10.7-10.7,10.8c0,0,0,0-0.1,0h-12.6c-1.1,0-2,0.9-2,2l0,0c0,1.1,0.9,2,2,2
	h12.5c8.2,0,14.9-6.6,14.9-14.8c0,0,0,0,0,0v-27.6C342.2,793.2,335.5,786.5,327.3,786.5C327.3,786.5,327.3,786.5,327.3,786.5z"/>
<path class="st0" d="M0.1,556.1h0.6c0,16.9,0.1,33.8,0,50.6c-0.1,12,2.1,14.9,13.7,17c8.8,1.6,17.5,3.3,26.3,5
	c25.8,4.9,51.4,11.1,77.4,14.5c36,4.7,69.2-3.8,97.2-27.9c33.8-29,48.9-66.1,46.6-110.3c-2.4-45.2-22.3-80-63.3-100.5
	c-24.4-12.2-50.2-21.4-74.8-33c-13.3-6.1-25.8-13.6-37.5-22.4c-13.6-10.5-20.2-25.7-18.6-43.3c2-22.7,22.1-42.9,46.9-47.4
	c25.7-4.7,48.9,1.7,67.4,19.6c11.8,11.4,20.7,25.8,30.7,39c6.4,8.5,11.9,17.8,18.7,25.8c2,2.3,8.1,3.2,11.1,2c2.4-1,4.5-6.4,4.3-9.6
	c-1-20-3-40.1-4.2-60.1c-0.9-16.1-4.5-21.7-20-26.3c-38.7-11.5-77.9-15-117.7-6.5c-49.4,10.5-94.7,43.7-98.5,105
	c-2.7,43.2,10.2,79.2,49.3,101.8c18.4,10.6,37.9,19.5,57.3,28.2c21.8,9.7,44.1,18.1,63.3,32.7c21.1,16.1,26.6,38.5,22.3,63.2
	c-4.3,24.3-20.1,39.8-43.6,46c-33.2,8.7-62.3-0.4-85.1-25.7c-10.7-11.8-19.6-25.7-26.8-40c-8.1-16-13-33.6-19.9-50.2
	c-1.8-4.4-4.9-10-8.8-11.6c-8.4-3.4-14.1,1.4-14.3,11.1C-0.2,520.3,0.1,538.2,0.1,556.1z M429.1,386.4c0-44,0-87.9,0-131.8
	c0-6.2,0.7-12.4,0.3-18.6c-0.2-4.1-1.7-8.2-2.7-12.3c-4.3,1.1-9.3,1.2-12.7,3.5c-18.2,12.8-37.8,23-58.9,29.8
	c-18.9,6-38.2,10.6-57.2,16.2c-6.3,1.9-13,4.2-18.1,8.1c-2.9,2.2-4.6,8.4-3.9,12.2c0.5,2.6,5.9,5.2,9.5,6.1
	c4.5,1.1,9.4,0.3,14.1,0.4c17.7,0.3,27.5,7.5,31.1,24.9c2.4,11.9,3.7,24,3.8,36.2c0.5,60.8,0.6,121.7,0.5,182.5
	c-0.1,14.9-3.4,29.7-9.7,43.2c-4.2,9.4-10.3,16.8-20.1,20.8c-4.1,1.7-8.9,3.2-11.6,6.3s-4.6,8.4-4,12.2c0.4,2.5,6,5.5,9.5,5.7
	c6.6,0.3,13.3-1.4,20-1.8c25-1.7,50-4.6,75-4.3c23.5,0.2,46.9,4.7,70.5,5.8c13.2,0.6,26.6-1.6,39.8-3.3c4.5-0.6,8.7-4.6,7-9.7
	c-1.1-3.4-4.7-6.2-7.7-8.7c-1.5-1.2-4.2-1.1-6.4-1.4c-4.9-0.6-9.9-0.9-14.8-1.6c-29.8-4.2-45.3-18.9-49.9-48.6
	c-1.9-12.8-2.9-25.6-3-38.5C428.9,475.3,429.1,430.8,429.1,386.4z M378.6,149.3c4-2.1,7.5-3.1,10-5.2c20.2-17,37-37.5,49.7-60.6
	c3.6-6.5,3.8-13.4-0.6-19c-15.5-19.6-31-39.3-47.7-57.9c-7.8-8.8-12.7-8.5-20.6,0.5c-16.2,18.4-31.9,37.3-46.6,56.8
	c-8.4,11.2-7.5,16.4,1.5,27.3c13.8,16.9,27.9,33.6,42.2,50.1C369.5,144.7,374.4,146.5,378.6,149.3z"/>
<path class="st0" d="M492.3,449.3c-1.2-117.3,95-197.8,182.1-209.2c44.2-5.8,87.6-3.4,128.2,16c67.2,32.1,104.8,85.8,111.4,160.5
	c8.3,93.5-42.7,177.7-129.7,211.5c-55.8,21.7-112.7,22.8-168.9,1.7C538.9,601,492.2,531.5,492.3,449.3z M587.9,406.1
	c0.1,42.5,7.4,83.5,26.1,121.9c13.6,28,30.8,53.4,56.9,71.4c48.2,33.2,107.5,20.6,136.5-30.1c7.8-13.5,13.8-29,16.3-44.3
	c8.8-54,1.8-106.9-18.5-157.6c-12.5-31.2-30-59.3-56.5-80.9C709,254.1,637,249.9,604.2,319.8C591.3,347.2,587.9,376.2,587.9,406.1z"
	/>
<path class="st0" d="M0.1,556.1c0-17.9-0.2-35.8,0.1-53.6c0.2-9.8,5.9-14.6,14.3-11.1c3.9,1.6,7,7.2,8.8,11.6
	c6.9,16.7,11.8,34.2,19.9,50.2c7.2,14.2,16.2,28.2,26.8,40c22.8,25.2,51.9,34.4,85.1,25.7c23.4-6.2,39.3-21.7,43.6-46
	c4.4-24.7-1.1-47-22.3-63.2c-19.2-14.6-41.5-23-63.3-32.7c-19.5-8.6-38.9-17.5-57.3-28.2C16.7,426.2,3.8,390.2,6.4,347.1
	c3.8-61.3,49.1-94.5,98.5-105c39.8-8.5,79-5,117.7,6.5c15.4,4.6,19,10.2,20,26.3c1.2,20,3.1,40.1,4.2,60.1c0.2,3.3-1.9,8.6-4.3,9.6
	c-3,1.3-9.1,0.4-11.1-2c-6.9-8.1-12.3-17.3-18.7-25.8c-9.9-13.2-18.9-27.6-30.7-39c-18.5-17.9-41.6-24.3-67.4-19.6
	c-24.8,4.6-45,24.8-46.9,47.4c-1.5,17.6,5,32.8,18.6,43.3c11.7,8.8,24.2,16.3,37.5,22.3c24.7,11.6,50.5,20.9,74.8,33
	c41,20.5,61,55.4,63.3,100.5c2.3,44.2-12.9,81.3-46.6,110.3c-28.1,24.1-61.2,32.6-97.2,27.9c-26-3.4-51.6-9.5-77.4-14.5
	c-8.8-1.7-17.5-3.4-26.3-5c-11.6-2.1-13.8-5-13.7-17c0.2-16.9,0-33.8,0-50.6L0.1,556.1z"/>
<path class="st0" d="M429.1,386.4c0,44.4-0.2,88.9,0.1,133.3c0.1,12.9,1.1,25.8,3,38.5c4.6,29.7,20.1,44.4,49.9,48.6
	c4.9,0.7,9.9,1,14.8,1.6c2.2,0.3,4.9,0.2,6.4,1.4c3,2.4,6.6,5.3,7.7,8.7c1.7,5.1-2.5,9.1-7,9.7c-13.2,1.7-26.6,3.9-39.8,3.3
	c-23.5-1.1-47-5.5-70.5-5.8c-25-0.3-50,2.7-75,4.3c-6.7,0.5-13.4,2.2-20,1.8c-3.4-0.2-9-3.2-9.5-5.7c-0.6-3.8,1.3-9.1,4-12.2
	s7.5-4.7,11.6-6.3c9.9-4,15.9-11.5,20.1-20.8c6.3-13.6,9.6-28.3,9.7-43.2c0-60.8,0-121.7-0.5-182.5c-0.1-12.1-1.4-24.3-3.8-36.1
	c-3.6-17.4-13.4-24.6-31.1-24.9c-4.7-0.1-9.6,0.7-14.1-0.4c-3.6-0.9-9-3.5-9.5-6.1c-0.7-3.8,1-10,3.9-12.2
	c5.1-3.9,11.7-6.3,18.1-8.1c19-5.6,38.4-10.1,57.2-16.2c21.1-6.8,40.6-17.1,58.9-29.8c3.4-2.4,8.4-2.4,12.7-3.5
	c0.9,4.1,2.4,8.2,2.7,12.3c0.4,6.2-0.3,12.4-0.3,18.6C429.1,298.5,429.1,342.4,429.1,386.4z"/>
<path class="st0" d="M378.6,149.3c-4.2-2.7-9-4.6-12.1-8.1c-14.4-16.4-28.5-33.1-42.2-50.1c-9-11-10-16.1-1.5-27.3
	c14.8-19.6,30.4-38.5,46.6-56.8c7.9-9,12.8-9.3,20.6-0.5c16.6,18.7,32.2,38.3,47.7,57.9c4.4,5.6,4.2,12.5,0.6,19
	c-12.7,23.1-29.6,43.6-49.7,60.6C386.1,146.2,382.6,147.2,378.6,149.3z"/>
<path class="st0" d="M424.7,842.1c0-0.3,0-0.6,0.1-0.8l15.5-53.2c0.1-0.9,0.9-1.6,1.8-1.6c0.9-0.1,1.6,0.6,1.7,1.5c0,0,0,0.1,0,0.1
	c0,0.2,0,0.5-0.1,0.7l-15.6,53.4c-0.2,0.8-0.9,1.4-1.8,1.4c-0.9,0.1-1.6-0.5-1.7-1.4C424.7,842.2,424.7,842.1,424.7,842.1z"/>
<g>
	<defs>
		<rect id="SVGID_1_" y="773.5" width="269.1" height="85"/>
	</defs>
	<clipPath id="SVGID_00000061466556569426462230000010770209111895457955_">
		<use xlink:href="#SVGID_1_"  style="overflow:visible;"/>
	</clipPath>
	<g style="clip-path:url(#SVGID_00000061466556569426462230000010770209111895457955_);">
		<path class="st0" d="M42,825.2h20.2l-10.1-28.7L42,825.2z M120.7,812.2c3.9-4.3,3.9-10.8,0-15.1c-1.8-2-4.4-3.1-7.1-3.1h-15v21.3
			h15C116.3,815.3,118.9,814.2,120.7,812.2 M206.4,825.2h20.2l-10.1-28.7L206.4,825.2z M245.8,847.8h-11.3l-4.5-12.8h-27.1
			l-4.5,12.8h-11.3l23.1-63.6h12.5L245.8,847.8z M182.5,847.8h-38.6v-63.6h38.2v10h-27.7v16.5h25.5v9.9h-25.5v17.2h28.2V847.8z
			 M121.4,823.1l14.5,24.7h-11.5L111,824.7H98.6v23.2H88.2v-63.6h25.5c11.2-0.1,20.4,9,20.5,20.2c0,0.1,0,0.2,0,0.3
			c0,4-1.2,7.9-3.5,11.1C128.3,819.1,125.1,821.7,121.4,823.1 M81.3,847.8H70.1l-4.5-12.8H38.5L34,847.9H22.7l23.1-63.6h12.5
			L81.3,847.8z M269.1,816.1c0-23.5-19-42.5-42.5-42.5c0,0,0,0,0,0H42.5C19,773.1-0.4,791.7-0.9,815.1
			c-0.5,23.5,18.1,42.9,41.6,43.4c0.6,0,1.2,0,1.8,0h184.1C250.1,858.6,269.1,839.5,269.1,816.1"/>
	</g>
</g>
<g>
	<defs>
		<rect id="SVGID_00000093135365123685547330000008337501736005013656_" x="451.6" y="791.8" width="462.8" height="53.5"/>
	</defs>
	<clipPath id="SVGID_00000182502694091643275830000002259729127856543154_">
		<use xlink:href="#SVGID_00000093135365123685547330000008337501736005013656_"  style="overflow:visible;"/>
	</clipPath>
	<g style="clip-path:url(#SVGID_00000182502694091643275830000002259729127856543154_);">
		<path class="st0" d="M907.2,810.3c2,1.8,3.2,4.3,3.5,7h-21.2c0.6-5.6,5.4-9.7,11-9.5C902.9,807.8,905.3,808.7,907.2,810.3
			 M889.8,808.4c-2.8,2.8-4.3,6.7-4.2,10.6c-0.1,4,1.4,7.8,4.2,10.7c2.9,2.8,6.8,4.4,10.9,4.2c2.6,0,5.1-0.6,7.4-1.8
			c2.1-1.1,3.9-2.8,5.1-4.8l-3.3-1.9c-0.8,1.5-2.1,2.7-3.5,3.5c-1.7,0.9-3.6,1.4-5.6,1.3c-2.8,0.1-5.5-0.8-7.7-2.5
			c-2.1-1.7-3.4-4.2-3.7-6.8h24.9c0.1-0.8,0.1-1.3,0.1-1.8c0.1-3.9-1.3-7.6-3.9-10.5c-2.5-2.9-6.3-4.6-10.1-4.5
			C896.4,804,892.6,805.6,889.8,808.4 M854.6,819.1c-0.1-3,1.1-5.9,3.2-8c4.4-4.3,11.5-4.3,15.9,0c4.4,4.4,4.4,11.5,0.1,15.9
			c-2.1,2.1-5,3.3-8,3.3c-3,0.1-5.9-1.1-8-3.3C855.7,824.9,854.5,822,854.6,819.1 M876.9,810.4c-2.4-4-6.8-6.4-11.5-6.2
			c-3.9-0.1-7.7,1.5-10.4,4.3c-5.7,5.9-5.7,15.2,0,21.1c2.7,2.8,6.5,4.4,10.4,4.3c4.7,0.2,9.1-2.2,11.5-6.2v4.4
			c0.1,2.6-0.9,5.2-2.8,7c-2.1,1.8-4.9,2.7-7.7,2.6c-5.1,0-8.5-1.7-10.2-5.2l-3.3,1.9c2.3,4.6,6.8,6.9,13.5,6.9
			c3.7,0.1,7.2-1.2,10.1-3.5c2.8-2.4,4.4-6,4.2-9.7v-27.3h-3.8L876.9,810.4z M840.6,810.3c2,1.8,3.2,4.3,3.5,7H823
			c0.6-5.6,5.4-9.7,11-9.5C836.4,807.8,838.9,808.7,840.6,810.3 M823.3,808.4c-2.8,2.8-4.3,6.7-4.2,10.6c-0.1,4,1.4,7.8,4.2,10.7
			c2.9,2.8,6.8,4.4,10.9,4.2c2.6,0,5.1-0.6,7.4-1.8c2.1-1.1,3.9-2.8,5.1-4.8l-3.3-1.9c-0.8,1.5-2.1,2.7-3.5,3.5
			c-1.7,0.9-3.6,1.4-5.6,1.3c-2.8,0.1-5.5-0.8-7.6-2.5c-2.1-1.7-3.4-4.2-3.7-6.8h24.9c0.1-0.8,0.1-1.3,0.1-1.8
			c0.1-3.9-1.3-7.6-3.9-10.5c-2.5-3-6.3-4.6-10.2-4.5C829.9,804,826,805.6,823.3,808.4 M814.2,791.8h-3.8v41.5h3.8V791.8z
			 M804,791.8h-3.7v41.5h3.8L804,791.8z M769.3,819.1c-0.1-3,1.1-5.9,3.2-8c4.4-4.4,11.5-4.4,15.9,0c4.3,4.5,4.3,11.5,0,16
			c-4.4,4.3-11.5,4.3-15.9,0C770.4,825,769.2,822.1,769.3,819.1 M795.4,819.1c0.1-4-1.5-7.8-4.3-10.6c-5.9-5.7-15.3-5.7-21.2,0
			c-5.8,5.9-5.8,15.3,0,21.2c5.9,5.7,15.3,5.7,21.2,0C794,826.9,795.5,823.1,795.4,819.1 M758.4,832c2.2-1.3,4-3.1,5.2-5.4l-3.2-1.8
			c-3.1,5.3-9.9,7.2-15.2,4.1c-0.8-0.5-1.6-1.1-2.3-1.8c-4.3-4.5-4.3-11.5,0-16c2.1-2.2,5-3.3,8-3.3c2,0,4,0.5,5.7,1.5
			c1.6,0.9,2.9,2.4,3.7,4.1l3.1-1.8c-1-2.3-2.7-4.2-4.9-5.4c-7-4.4-16.3-2.2-20.6,4.9s-2.2,16.3,4.9,20.6c2.5,1.5,5.3,2.3,8.2,2.2
			C753.5,834,756.1,833.3,758.4,832 M733.9,830.7c0-1.7-1.4-3-3.1-3c-1.7,0-3,1.4-3,3.1c0,1.7,1.4,3,3.1,3c0.8,0,1.6-0.3,2.1-0.9
			C733.6,832.3,734,831.5,733.9,830.7 M721.7,791.8H718v41.5h3.8V791.8z M685.3,819.1c-0.1-3,1.1-5.9,3.2-8c4.4-4.3,11.5-4.3,15.9,0
			c4.3,4.5,4.3,11.5,0,16c-4.4,4.3-11.5,4.3-15.9,0C686.4,825,685.2,822.1,685.3,819.1 M707.7,810.4c-2.4-4-6.8-6.4-11.5-6.2
			c-3.9-0.1-7.7,1.5-10.4,4.3c-5.7,5.9-5.7,15.2,0,21.1c2.7,2.8,6.5,4.4,10.4,4.3c4.7,0.2,9.1-2.2,11.5-6.2v5.6h3.8v-28.4h-3.8
			L707.7,810.4z M674.4,832c2.2-1.3,4-3.1,5.2-5.4l-3.1-1.8c-0.9,1.7-2.3,3.1-3.9,4.1c-4.4,2.6-10,1.9-13.7-1.7
			c-4.3-4.5-4.3-11.5,0-16c2.1-2.2,5-3.3,8-3.3c2,0,4,0.5,5.7,1.5c1.6,0.9,2.9,2.4,3.7,4.1l3.1-1.8c-1-2.3-2.7-4.2-4.9-5.4
			c-5.9-3.4-13.3-2.5-18.2,2.3c-5.8,5.8-5.9,15.2-0.1,21.1c2.8,2.9,6.8,4.5,10.8,4.4C669.5,834,672.1,833.3,674.4,832 M647.1,804.8
			h-3.8v28.4h3.8V804.8z M647.9,796.1c0-1.5-1.2-2.7-2.7-2.7c-0.7,0-1.4,0.3-1.9,0.8c-1,1.1-1,2.8,0.1,3.9c1.1,1,2.7,1,3.8,0
			C647.7,797.5,647.9,796.8,647.9,796.1 M610.7,819.1c0.1-6.1,5.1-11,11.3-10.9c6.1,0.1,11,5.1,10.9,11.3c-0.1,6.1-5.1,11-11.3,10.9
			c-2.9,0-5.7-1.2-7.7-3.3C611.8,825,610.6,822.1,610.7,819.1 M633,810.5c-2.4-4-6.8-6.4-11.5-6.2c-3.9-0.1-7.7,1.5-10.4,4.3
			c-5.7,5.9-5.7,15.2,0,21.1c2.7,2.8,6.5,4.4,10.4,4.3c4.7,0.2,9.1-2.2,11.5-6.2v5.6h3.8v-39.8H633V810.5z M596.7,810.3
			c2,1.8,3.2,4.3,3.5,7H579c0.6-5.6,5.4-9.7,11-9.5C592.5,807.8,594.9,808.7,596.7,810.3 M579.3,808.5c-2.8,2.8-4.3,6.6-4.2,10.6
			c-0.1,4,1.4,7.8,4.2,10.7c2.9,2.8,6.8,4.4,10.9,4.2c2.6,0,5.1-0.6,7.4-1.8c2.1-1.1,3.9-2.8,5.1-4.8l-3.3-1.9
			c-0.8,1.5-2.1,2.7-3.5,3.5c-1.7,0.9-3.6,1.4-5.6,1.3c-2.8,0.1-5.5-0.8-7.6-2.5c-2.1-1.7-3.4-4.2-3.7-6.8h24.9
			c0.1-0.8,0.1-1.3,0.1-1.8c0.1-3.9-1.3-7.6-3.9-10.5c-2.6-3-6.3-4.6-10.2-4.5C585.9,804,582.1,805.6,579.3,808.5 M551.2,809.3
			c-1.7-3.5-4.6-5.2-8.6-5.2c-3.6-0.1-6.9,1.7-8.7,4.8v-4.2h-3.8v28.4h3.8v-15.7c0-3.3,0.8-5.8,2.4-7.3c1.5-1.6,3.6-2.4,5.8-2.4
			c1.8-0.1,3.6,0.6,4.8,2c1.3,1.6,1.9,3.7,1.8,5.7v17.7h3.8v-15.7c0-3.3,0.7-5.8,2.2-7.4c1.5-1.6,3.6-2.4,5.7-2.3
			c1.9-0.1,3.7,0.7,5,2c1.4,1.6,2,3.6,1.9,5.7v17.7h3.8v-17.7c0.2-3-0.9-6-2.9-8.3c-4.4-4.2-11.3-4.1-15.5,0.3
			C552,808.1,551.6,808.7,551.2,809.3 M524.2,830.7c0-1.7-1.4-3-3.1-3c-1.7,0-3,1.4-3,3.1c0,1.7,1.4,3,3.1,3c0.8,0,1.6-0.3,2.1-0.9
			C523.9,832.3,524.2,831.5,524.2,830.7 M489.8,819.1c-0.1-3,1.1-5.9,3.2-8c4.4-4.3,11.5-4.3,15.9,0c4.3,4.5,4.3,11.5,0,16
			c-4.4,4.3-11.5,4.3-15.9,0C490.9,825,489.7,822.1,489.8,819.1 M515.9,819.1c0.1-4-1.5-7.8-4.3-10.6c-5.9-5.7-15.3-5.7-21.2,0
			c-5.8,5.9-5.8,15.3,0,21.2c5.9,5.7,15.3,5.7,21.2,0C514.4,826.9,516,823.1,515.9,819.1 M481.2,804.9h-3.7v28.4h3.8L481.2,804.9z
			 M482,796.1c0-1.5-1.2-2.7-2.7-2.7c-1.5-0.1-2.8,1.1-2.9,2.6c-0.1,1.5,1.1,2.8,2.6,2.9c0.1,0,0.2,0,0.3,0
			C480.8,798.8,482,797.6,482,796.1 M458,809c1.3-0.8,2.7-1.2,4.2-1.1c3.5,0,5.7,1.3,6.8,4l3.1-1.8c-0.8-1.8-2.2-3.2-3.9-4.2
			c-1.8-1.1-3.9-1.6-6.1-1.6c-2.5-0.1-5,0.7-7,2.3c-1.8,1.4-2.8,3.5-2.8,5.8c-0.1,1.7,0.5,3.4,1.7,4.7c1.1,1.2,2.6,2,4.1,2.5
			l4.9,1.4c1.5,0.4,2.9,1,4.2,1.8c1.1,0.6,1.7,1.8,1.7,3.1c0.1,1.4-0.7,2.7-1.9,3.4c-1.4,0.8-3,1.2-4.7,1.1c-1.7,0-3.4-0.4-4.9-1.3
			c-1.3-0.8-2.4-2-2.9-3.5l-3.2,1.9c0.8,2,2.2,3.6,4,4.7c2.1,1.3,4.5,1.9,7,1.8c2.7,0.1,5.3-0.7,7.4-2.3c1.9-1.4,2.9-3.6,2.9-5.9
			c0.1-1.8-0.5-3.5-1.7-4.8c-1.1-1.2-2.5-2.1-4.1-2.5l-4.8-1.4c-1.5-0.4-2.9-1-4.2-1.8c-1.1-0.6-1.7-1.8-1.7-3
			C456.2,810.9,456.9,809.7,458,809"/>
	</g>
</g>
<g>
	<defs>
		<rect id="SVGID_00000033353947144645446040000009094990615655875255_" x="0.2" y="673.5" width="914.3" height="77.5"/>
	</defs>
	<clipPath id="SVGID_00000008836240668722573630000015459631156239208625_">
		<use xlink:href="#SVGID_00000033353947144645446040000009094990615655875255_"  style="overflow:visible;"/>
	</clipPath>
	<g style="clip-path:url(#SVGID_00000008836240668722573630000015459631156239208625_);">
		<path class="st0" d="M882.3,716.5h29.1v-11.3h-29.1v-18.9H914v-11.4h-43.6v72.6h44.1v-11.4h-32.2V716.5z M823.1,709.9v10.7h24.3
			c-1,4.9-3.7,9.2-7.7,12.1c-4.1,3-9.3,4.5-15.7,4.5c-8,0-14.5-2.5-19.5-7.4s-7.5-11.1-7.4-18.6c-0.2-7,2.5-13.7,7.4-18.7
			c4.9-5,11.2-7.5,18.8-7.5c4.5-0.1,8.9,1,12.8,3.2c3.6,1.9,6.6,4.8,8.6,8.3l10.3-5.9c-3.1-5.3-7.7-9.6-13.1-12.5
			c-5.7-3.1-12.1-4.7-18.6-4.7c-10.8,0-19.9,3.6-27.2,10.9c-14.6,14.8-14.6,38.6,0,53.5c7.3,7.3,16.6,10.9,27.8,10.9
			c10.6,0,19.2-3.2,25.8-9.5c6.6-6.3,9.9-14.5,9.8-24.4v-5L823.1,709.9z M746.2,716.5h29.1v-11.3h-29.1v-18.9h31.7v-11.4h-43.6v72.6
			h44.2v-11.4h-32.2L746.2,716.5z M695.9,674.9h-12v72.6h41.5v-11.4h-29.6L695.9,674.9z M645.5,674.9h-11.9v72.6h41.5v-11.4h-29.6
			L645.5,674.9z M559.2,711.2c0-7.5,2.5-13.7,7.4-18.6c10.2-9.9,26.4-9.9,36.7,0c9.9,10.4,9.9,26.8,0,37.2
			c-10.2,9.9-26.4,9.9-36.7,0C561.7,724.9,559,718.2,559.2,711.2 M622.6,711.2c-0.1-20.6-17-37.3-37.6-37.1
			c-20.6,0.1-37.3,17-37.1,37.6c0.1,20.6,17,37.3,37.6,37.1c9.8-0.1,19.2-4,26.1-10.9C618.8,730.9,622.8,721.2,622.6,711.2
			 M528.6,744.1c5.4-3,9.9-7.4,12.9-12.7l-10.4-5.9c-1.9,3.6-4.8,6.6-8.4,8.5c-3.8,2.1-8.1,3.2-12.5,3.2c-7.8,0-14-2.5-18.8-7.4
			c-4.8-4.9-7.2-11.1-7.2-18.7c0-7.5,2.4-13.8,7.2-18.7c4.8-4.9,11.1-7.4,18.8-7.4c4.3-0.1,8.6,1,12.4,3.2c3.6,2,6.5,5,8.5,8.6
			l10.4-6c-3.1-5.3-7.6-9.7-13-12.7c-5.6-3.1-11.9-4.7-18.2-4.7c-10.9,0-20,3.6-27.2,10.8c-7.2,7.2-10.8,16.2-10.8,26.8
			c0,10.7,3.6,19.6,10.8,26.8c7.2,7.2,16.3,10.8,27.2,10.8C516.8,748.9,523.1,747.3,528.6,744.1"/>
		<path class="st0" d="M406.4,674.9h-12.3v74.7h42.8v-11.7h-30.5V674.9z M351.7,689.3l11.9,33.8h-23.7L351.7,689.3z M386.1,749.6
			l-27-74.7h-14.8l-27.1,74.7h13.4l5.2-15h31.8l5.3,15H386.1z M301.2,746.2c5.6-3.1,10.2-7.6,13.3-13.1l-10.7-6.1
			c-2,3.7-5,6.8-8.7,8.8c-3.9,2.2-8.3,3.3-12.8,3.3c-8,0-14.5-2.5-19.4-7.6c-4.9-5.1-7.4-11.5-7.4-19.2c0-7.8,2.5-14.2,7.4-19.2
			c5-5.1,11.4-7.6,19.4-7.6c4.5-0.1,8.9,1.1,12.8,3.3c3.7,2,6.7,5.1,8.7,8.8l10.7-6.2c-3.2-5.5-7.8-10-13.4-13
			c-5.7-3.2-12.2-4.9-18.8-4.8c-11.3,0-20.6,3.7-28,11.2c-7.4,7.4-11.1,16.6-11.1,27.6c0,10.9,3.7,20.1,11.1,27.6
			c7.4,7.4,16.7,11.2,28,11.2C289,751.1,295.5,749.5,301.2,746.2 M219.8,749.7h12.3v-74.8h-12.3L219.8,749.7z M155.7,737.9v-51.3
			h17.1c7.1,0,12.8,2.4,17.3,7.2s6.7,10.9,6.7,18.4c0,7.4-2.2,13.5-6.7,18.3c-4.5,4.8-10.2,7.3-17.3,7.3L155.7,737.9z M143.4,674.9
			v74.7h29.4c10.3,0,18.8-3.6,25.6-10.8c6.8-7.2,10.2-16.1,10.2-26.5c0-10.5-3.4-19.4-10.2-26.6c-6.8-7.2-15.3-10.8-25.6-10.8
			L143.4,674.9z M99,717.7h29.9v-11.7H99v-19.4h32.6v-11.7H86.7v74.7h45.4v-11.7H99L99,717.7z M58.6,674.9L36,712.3l-22.6-37.4H0.2
			v74.7h12.3v-53.4l22.8,37.7h1.5l22.7-37.6v53.3h12.3v-74.7L58.6,674.9z"/>
	</g>
</g>
</svg>
